<svg width="146" height="88" viewBox="0 0 146 88" preserveAspectRatio="xMidYMid" fill="none"
  xmlns="http://www.w3.org/2000/svg" xmlns:xlink="http://www.w3.org/1999/xlink" role="img" aria-hidden="true">
  <path
    d="M6.12109 86.4102C2.76172 85.5117 0.808594 83.3438 0.261719 79.9062C0.105469 78.7734 0.261719 77.9727 0.730469 77.5039C1.19922 77.0352 1.64844 77.2305 2.07812 78.0898C3.01562 80.5117 4.98828 81.918 7.99609 82.3086C11.043 82.6992 14.4609 82.2891 18.25 81.0781C22.0781 79.8672 25.5938 78.1875 28.7969 76.0391C32 73.8906 34.1875 71.7031 35.3594 69.4766C36.0234 68.2266 36.1602 67.1719 35.7695 66.3125C35.418 65.4141 34.5586 64.9258 33.1914 64.8477C31.9023 64.7305 29.3828 64.8086 25.6328 65.082C24.1875 65.1992 23.1133 65.2773 22.4102 65.3164C17.918 65.5898 14.6367 64.8281 12.5664 63.0312C10.5352 61.1953 9.61719 57.9531 9.8125 53.3047C10.0469 48.1094 11.6875 42.2891 14.7344 35.8437C17.7812 29.3984 21.5898 23.3242 26.1602 17.6211C30.7305 11.8789 35.2422 7.48437 39.6953 4.4375C43.3672 1.89843 46.6484 0.941403 49.5391 1.5664C52.4688 2.1914 54.5195 3.98828 55.6914 6.95703C56.8633 9.92578 56.8828 13.4609 55.75 17.5625C55.7891 17.4844 55.8672 17.3672 55.9844 17.2109C63.0547 7.99218 67.7227 2.60156 69.9883 1.03906C70.6133 0.609371 71.375 0.511715 72.2734 0.74609C73.2109 0.941403 73.8945 1.33203 74.3242 1.91797C74.793 2.5039 74.7539 3.03125 74.207 3.5C69.4414 7.71875 64.5195 12.8555 59.4414 18.9102C54.4023 24.9648 50.418 30.5508 47.4883 35.668C46.1992 37.9336 44.2266 41.2148 41.5703 45.5117C39.5391 48.832 38.0352 51.332 37.0586 53.0117C36.7461 53.5195 36.1992 53.5977 35.418 53.2461C34.6758 52.8945 34.0703 52.3477 33.6016 51.6055C33.1328 50.8242 33.1328 50.1406 33.6016 49.5547C36.6484 45.2969 39.2266 41.4297 41.3359 37.9531C43.4453 34.4766 45.3789 30.9414 47.1367 27.3477C47.1758 27.2305 47.2734 27.0156 47.4297 26.7031C49.8125 21.7812 51.3945 17.8164 52.1758 14.8086C52.8789 12.2305 52.9961 10.0039 52.5273 8.1289C52.0977 6.21484 51.1016 5.08203 49.5391 4.73046C47.9766 4.33984 45.9453 4.96484 43.4453 6.60546C39.5 9.30078 35.3008 13.3633 30.8477 18.793C26.3945 24.1836 22.5859 29.8672 19.4219 35.8437C16.2578 41.8203 14.4219 47.3477 13.9141 52.4258C13.6016 56.5273 14.3242 59.2227 16.082 60.5117C17.8398 61.7617 20.5352 62.2305 24.168 61.918C27.3711 61.7227 29.9688 61.625 31.9609 61.625C35.125 61.6641 37.2539 62.5234 38.3477 64.2031C39.4414 65.8437 39.4023 68.1094 38.2305 71C36.9805 74.1641 34.4219 77.1328 30.5547 79.9062C26.7266 82.6406 22.5273 84.6523 17.957 85.9414C13.4258 87.1914 9.48047 87.3477 6.12109 86.4102Z"
    fill="#F99E4B" />
  <path
    d="M62.2539 62.3281C58.2695 67.7187 55.0469 70.7461 52.5859 71.4102C51.1016 71.8398 49.8516 71.6055 48.8359 70.707C47.7812 69.7695 47.1562 68.2656 46.9609 66.1953C46.8828 63.5 47.7812 60.3555 49.6562 56.7617C51.4922 53.168 53.7969 49.8281 56.5703 46.7422C59.3828 43.6562 61.8828 41.7617 64.0703 41.0586C65.8281 40.4727 67.4297 40.5117 68.875 41.1758C70.3203 41.8398 71.375 42.8555 72.0391 44.2227C72.7422 45.5508 72.8984 46.8594 72.5078 48.1484C72.1172 49.3984 71.1602 50.2773 69.6367 50.7852C69.207 50.9023 68.8555 50.8828 68.582 50.7266C68.3086 50.5312 68.2695 50.2187 68.4648 49.7891C69.1289 48.1484 69.4609 46.6836 69.4609 45.3945C69.5 44.1055 68.6406 43.8125 66.8828 44.5156C64.7734 45.3359 62.5664 47.0547 60.2617 49.6719C57.957 52.25 55.9648 55.0625 54.2852 58.1094C52.6055 61.1562 51.5898 63.6562 51.2383 65.6094C51.0039 66.8594 51.1016 67.6992 51.5312 68.1289C51.9609 68.5586 52.6641 68.4219 53.6406 67.7188C55.3984 66.5078 57.5469 64.2812 60.0859 61.0391C62.625 57.7969 64.5977 54.9453 66.0039 52.4844C66.2383 52.0547 66.7461 51.8984 67.5273 52.0156C68.3086 52.1328 68.9922 52.4258 69.5781 52.8945C70.1641 53.3242 70.3203 53.793 70.0469 54.3008C69.3828 55.5508 68.543 57.2695 67.5273 59.457C66.5117 61.6055 65.8477 63.3047 65.5352 64.5547C65.2617 65.6484 65.3594 66.3711 65.8281 66.7227C66.3359 67.0352 67.1562 66.8008 68.2891 66.0195C70.125 64.8086 72.4688 62.4453 75.3203 58.9297C78.2109 55.375 80.5938 51.7422 82.4688 48.0312C82.7031 47.6406 83.0352 47.5625 83.4648 47.7969C83.9336 48.0312 84.0703 48.4219 83.875 48.9687C83.0547 51.1953 81.7852 53.7344 80.0664 56.5859C78.3477 59.4375 76.4922 62.0547 74.5 64.4375C72.5078 66.8203 70.7305 68.5195 69.168 69.5352C67.6055 70.5117 66.1406 70.9414 64.7734 70.8242C63.4062 70.707 62.3906 70.1016 61.7266 69.0078C61.1016 67.875 61.0234 66.4102 61.4922 64.6133C61.6094 64.0664 61.8242 63.4414 62.1367 62.7383C62.1758 62.543 62.2148 62.4062 62.2539 62.3281Z"
    fill="#F99E4B" />
  <path
    d="M94.2461 66.3711C94.793 66.6836 95.9844 66.0781 97.8203 64.5547C100.438 62.4453 103.074 59.7695 105.73 56.5273C108.426 53.2852 110.418 50.6484 111.707 48.6172C112.02 48.1094 112.371 47.9531 112.762 48.1484C113.191 48.3437 113.309 48.6758 113.113 49.1445C111.668 51.7227 109.207 55.1797 105.73 59.5156C102.254 63.8125 99.3633 66.6836 97.0586 68.1289C95.2227 69.2227 93.6602 69.6328 92.3711 69.3594C91.082 69.0859 90.2031 68.2852 89.7344 66.957C89.3047 65.5898 89.3633 64.0078 89.9102 62.2109C90.3398 60.7266 90.9453 59.2812 91.7266 57.875C92.5469 56.4297 93.6211 54.6719 94.9492 52.6016C95.9258 51.0781 96.6289 49.9453 97.0586 49.2031C97.7617 48.0312 98.0156 47.1914 97.8203 46.6836C97.625 46.1367 96.8633 46.3516 95.5352 47.3281C92.8008 49.3203 86.5703 56.7617 76.8438 69.6523C76.4531 70.1992 75.8867 70.4141 75.1445 70.2969C74.4023 70.1797 73.7773 69.8281 73.2695 69.2422C72.7227 68.6172 72.5273 67.9922 72.6836 67.3672C73.5039 63.7344 75.5352 59.1836 78.7773 53.7148C81.9805 48.207 84.4414 44.75 86.1602 43.3437C86.8242 42.875 87.6055 42.7383 88.5039 42.9336C89.4023 43.1289 90.1055 43.4805 90.6133 43.9883C91.1602 44.4961 91.2773 44.9062 90.9648 45.2187C88.1523 47.7578 85.6523 50.6875 83.4648 54.0078C81.3164 57.2891 79.1289 61.1367 76.9023 65.5508C76.9805 65.4727 77.0781 65.3359 77.1953 65.1406C80.6328 60.5703 84.0508 56.2734 87.4492 52.25C90.8477 48.1875 93.9141 45.3164 96.6484 43.6367C98.3672 42.543 99.7539 42.1523 100.809 42.4648C101.863 42.7383 102.469 43.5195 102.625 44.8086C102.781 46.0586 102.508 47.4844 101.805 49.0859C101.258 50.2969 100.203 52.1914 98.6406 54.7695C97.5078 56.6445 96.5898 58.2461 95.8867 59.5742C95.1836 60.8633 94.6172 62.1914 94.1875 63.5586C93.6797 65.1211 93.6992 66.0586 94.2461 66.3711Z"
    fill="#F99E4B" />
  <path
    d="M103.445 76.918C102.039 75.9414 101.277 74.2617 101.16 71.8789C101.043 68.793 102.352 64.1836 105.086 58.0508C107.82 51.8789 111.297 45.2383 115.516 38.1289C119.773 30.9805 124.051 24.3594 128.348 18.2656C132.684 12.1719 136.199 7.73828 138.895 4.96484C139.402 4.41796 140.184 4.10547 141.238 4.02734C142.293 3.94922 143.152 4.08593 143.816 4.4375C144.48 4.75 144.578 5.17968 144.109 5.72656C139.578 11 134.715 17.3477 129.52 24.7695C124.324 32.1523 119.617 39.6328 115.398 47.2109C111.219 54.75 108.094 61.8789 106.023 68.5977C105.164 71.5273 105.066 73.4219 105.73 74.2812C106.395 75.1016 107.957 74.6328 110.418 72.875C113.582 70.6875 117.371 66.5859 121.785 60.5703C126.238 54.5156 129.012 50.5117 130.105 48.5586C130.613 47.8555 131.102 47.6602 131.57 47.9727C132.039 48.2461 132.137 48.7344 131.863 49.4375C127.957 56.625 123.914 62.6992 119.734 67.6602C115.594 72.582 111.941 75.707 108.777 77.0352C106.629 77.9336 104.852 77.8945 103.445 76.918Z"
    fill="#F99E4B" />
  <path
    d="M121.199 68.8906C120.379 67.6797 120.145 66.1367 120.496 64.2617C120.887 62.4258 121.746 60.1406 123.074 57.4062C124.402 54.6328 125.867 52.0547 127.469 49.6719C129.031 47.2891 130.262 45.7461 131.16 45.043C131.629 44.6914 132.273 44.5742 133.094 44.6914C133.914 44.7695 134.559 45.0234 135.027 45.4531C135.496 45.8828 135.535 46.3516 135.145 46.8594C133.348 49.2812 131.434 52.2695 129.402 55.8242C127.371 59.3789 125.965 62.4258 125.184 64.9648C124.793 66.1758 124.793 67.0352 125.184 67.543C125.574 68.0117 126.316 67.9141 127.41 67.25C129.324 66.1172 132.176 63.3047 135.965 58.8125C139.754 54.3203 142.332 50.7852 143.699 48.207C144.012 47.7773 144.383 47.6797 144.812 47.9141C145.281 48.1484 145.379 48.5781 145.105 49.2031C142.723 53.3828 139.871 57.5039 136.551 61.5664C133.27 65.6289 130.613 68.3828 128.582 69.8281C127.293 70.7656 125.945 71.1562 124.539 71C123.094 70.8047 121.98 70.1016 121.199 68.8906ZM134.969 42.9336C134.188 42.543 133.855 41.918 133.973 41.0586C134.441 39.3789 135.496 37.3477 137.137 34.9648C137.488 34.4961 137.723 34.1641 137.84 33.9687C138.27 33.2266 138.973 32.9141 139.949 33.0312C140.965 33.1484 141.805 33.5195 142.469 34.1445C143.172 34.7305 143.309 35.2578 142.879 35.7266C142.723 35.8828 142.469 36.1367 142.117 36.4883C140.008 38.6367 138.328 40.6094 137.078 42.4062C136.492 43.1094 135.789 43.2852 134.969 42.9336Z"
    fill="#F99E4B" />
</svg>
