<svg xmlns="http://www.w3.org/2000/svg" xmlns:xlink="http://www.w3.org/1999/xlink" aria-hidden="true" role="img"
  width="435" height="424" fill="none" viewBox="0 0 435 424" preserveAspectRatio="xMidYMid">
  <rect width="435" height="424" fill="none" />
  <path
    d="M167.711 353.132C186.464 371.886 211.9 382.421 238.421 382.421C264.943 382.421 290.378 371.886 309.132 353.132C327.886 334.378 338.421 308.943 338.421 282.421C338.421 255.9 327.886 230.464 309.132 211.711L266.706 254.137C274.207 261.639 278.421 271.813 278.421 282.421C278.421 293.03 274.207 303.204 266.706 310.706C259.204 318.207 249.03 322.421 238.421 322.421C227.813 322.421 217.639 318.207 210.137 310.706L167.711 353.132Z"
    fill="#1D3461" />
  <path
    d="M210.275 311.048L167.849 353.475L146.635 332.261C134.92 320.546 134.92 301.551 146.635 289.835C158.351 278.119 177.346 278.119 189.062 289.835L210.275 311.048Z"
    fill="#1D3461" />
  <path
    d="M309.512 212.032L267.085 254.458L245.872 233.245C234.156 221.529 234.156 202.534 245.872 190.818C257.588 179.103 276.583 179.103 288.298 190.818L309.512 212.032Z"
    fill="#1D3461" />
  <path
    d="M267.132 70.7107C248.378 51.957 222.943 41.4214 196.421 41.4214C169.9 41.4214 144.464 51.957 125.711 70.7107C106.957 89.4643 96.4214 114.9 96.4214 141.421C96.4214 167.943 106.957 193.378 125.711 212.132L168.137 169.706C160.636 162.204 156.421 152.03 156.421 141.421C156.421 130.813 160.636 120.639 168.137 113.137C175.639 105.636 185.813 101.421 196.421 101.421C207.03 101.421 217.204 105.636 224.706 113.137L267.132 70.7107Z"
    fill="#1D3461" />
  <path
    d="M224.531 112.704L266.957 70.2777L288.171 91.4909C299.886 103.207 299.886 122.202 288.171 133.917C276.455 145.633 257.46 145.633 245.744 133.917L224.531 112.704Z"
    fill="#1D3461" />
  <path
    d="M125.421 211.848L167.848 169.421L189.061 190.635C200.777 202.35 200.777 221.345 189.061 233.061C177.345 244.777 158.35 244.777 146.635 233.061L125.421 211.848Z"
    fill="#1D3461" />
  <circle cx="310.5" cy="162.25" r="30" fill="#6290C8" />
  <path
    d="M146.646 289.842C134.931 301.558 134.931 320.553 146.646 332.269C158.362 343.985 177.357 343.985 189.073 332.269L288.176 233.165C299.892 221.45 299.892 202.455 288.176 190.739C276.461 179.023 257.466 179.023 245.75 190.739L146.646 289.842Z"
    fill="#376996" />
</svg>
