<svg width="234" height="105" viewBox="0 0 234 105" preserveAspectRatio="xMidYMid" fill="none"
  xmlns="http://www.w3.org/2000/svg" xmlns:xlink="http://www.w3.org/1999/xlink" role="img" aria-hidden="true">
  <path
    d="M100 55C100 61.5661 98.7067 68.0679 96.194 74.1342C93.6812 80.2005 89.9983 85.7124 85.3553 90.3553C80.7124 94.9983 75.2004 98.6812 69.1342 101.194C63.0679 103.707 56.5661 105 50 105C43.4339 105 36.9321 103.707 30.8658 101.194C24.7995 98.6812 19.2876 94.9983 14.6447 90.3553C10.0017 85.7124 6.31876 80.2004 3.80602 74.1342C1.29329 68.0679 -5.74026e-07 61.5661 0 55H17C17 59.3336 17.8536 63.6248 19.512 67.6286C21.1704 71.6323 23.6011 75.2702 26.6655 78.3345C29.7298 81.3989 33.3677 83.8296 37.3714 85.488C41.3752 87.1464 45.6664 88 50 88C54.3336 88 58.6248 87.1464 62.6286 85.488C66.6323 83.8296 70.2702 81.3989 73.3345 78.3345C76.3989 75.2702 78.8296 71.6323 80.488 67.6286C82.1464 63.6248 83 59.3336 83 55H100Z"
    fill="#A8862C" />
  <rect x="18" y="50" width="64" height="5" rx="2" fill="#E6E6E6" />
  <path
    d="M100 50C100 43.4339 98.7067 36.9321 96.194 30.8658C93.6812 24.7995 89.9983 19.2876 85.3553 14.6447C80.7124 10.0017 75.2004 6.31876 69.1342 3.80602C63.0679 1.29329 56.5661 -2.87013e-07 50 0C43.4339 2.87013e-07 36.9321 1.29329 30.8658 3.80602C24.7995 6.31876 19.2876 10.0017 14.6447 14.6447C10.0017 19.2876 6.31876 24.7996 3.80602 30.8658C1.29329 36.9321 -5.74026e-07 43.4339 0 50H17C17 45.6664 17.8536 41.3752 19.512 37.3714C21.1704 33.3677 23.6011 29.7298 26.6655 26.6655C29.7298 23.6011 33.3677 21.1704 37.3714 19.512C41.3752 17.8536 45.6664 17 50 17C54.3336 17 58.6248 17.8536 62.6286 19.512C66.6323 21.1704 70.2702 23.6011 73.3345 26.6655C76.3989 29.7298 78.8296 33.3677 80.488 37.3714C82.1464 41.3752 83 45.6664 83 50H100Z"
    fill="#CCA43B" />
  <path d="M156 55H167V83C167 85.7614 164.761 88 162 88H161C158.239 88 156 85.7614 156 83V55Z" fill="#A8862C" />
  <path d="M101 55H112V83C112 85.7614 109.761 88 107 88H106C103.239 88 101 85.7614 101 83V55Z" fill="#A8862C" />
  <rect x="113" y="50" width="42" height="5" rx="2" fill="#E6E6E6" />
  <path
    d="M167 50C167 45.6664 166.146 41.3752 164.488 37.3714C162.83 33.3677 160.399 29.7298 157.335 26.6655C154.27 23.6011 150.632 21.1704 146.629 19.512C142.625 17.8536 138.334 17 134 17C129.666 17 125.375 17.8536 121.371 19.512C117.368 21.1704 113.73 23.6011 110.665 26.6655C107.601 29.7298 105.17 33.3677 103.512 37.3714C101.854 41.3752 101 45.6664 101 50L112.22 50C112.22 47.1398 112.783 44.3076 113.878 41.6652C114.972 39.0227 116.577 36.6217 118.599 34.5992C120.622 32.5768 123.023 30.9725 125.665 29.8779C128.308 28.7834 131.14 28.22 134 28.22C136.86 28.22 139.692 28.7834 142.335 29.8779C144.977 30.9725 147.378 32.5768 149.401 34.5992C151.423 36.6217 153.028 39.0227 154.122 41.6652C155.217 44.3076 155.78 47.1398 155.78 50H167Z"
    fill="#CCA43B" />
  <path d="M223 55H234V83C234 85.7614 231.761 88 229 88H228C225.239 88 223 85.7614 223 83V55Z" fill="#A8862C" />
  <path d="M168 55H179V83C179 85.7614 176.761 88 174 88H173C170.239 88 168 85.7614 168 83V55Z" fill="#A8862C" />
  <path
    d="M234 50C234 45.6664 233.146 41.3752 231.488 37.3714C229.83 33.3677 227.399 29.7298 224.335 26.6655C221.27 23.6011 217.632 21.1704 213.629 19.512C209.625 17.8536 205.334 17 201 17C196.666 17 192.375 17.8536 188.371 19.512C184.368 21.1704 180.73 23.6011 177.665 26.6655C174.601 29.7298 172.17 33.3677 170.512 37.3714C168.854 41.3752 168 45.6664 168 50L179.22 50C179.22 47.1398 179.783 44.3076 180.878 41.6652C181.972 39.0227 183.577 36.6217 185.599 34.5992C187.622 32.5768 190.023 30.9725 192.665 29.8779C195.308 28.7834 198.14 28.22 201 28.22C203.86 28.22 206.692 28.7834 209.335 29.8779C211.977 30.9725 214.378 32.5768 216.401 34.5992C218.423 36.6217 220.028 39.0227 221.122 41.6652C222.217 44.3076 222.78 47.1398 222.78 50H234Z"
    fill="#CCA43B" />
</svg>
