<svg xmlns="http://www.w3.org/2000/svg" xmlns:xlink="http://www.w3.org/1999/xlink" aria-hidden="true" role="img"
  width="200" height="180" fill="none" viewBox="0 0 200 180" preserveAspectRatio="xMidYMid">
  <path
    d="M180 35C180 37.7614 177.761 40 175 40C172.239 40 170 37.7614 170 35C170 32.2386 172.239 30 175 30C177.761 30 180 32.2386 180 35ZM171.7 35C171.7 36.8225 173.177 38.3 175 38.3C176.823 38.3 178.3 36.8225 178.3 35C178.3 33.1775 176.823 31.7 175 31.7C173.177 31.7 171.7 33.1775 171.7 35Z"
    fill="#E6E6E6" />
  <path
    d="M200 15C200 17.7614 197.761 20 195 20C192.239 20 190 17.7614 190 15C190 12.2386 192.239 10 195 10C197.761 10 200 12.2386 200 15ZM191.7 15C191.7 16.8225 193.177 18.3 195 18.3C196.823 18.3 198.3 16.8225 198.3 15C198.3 13.1775 196.823 11.7 195 11.7C193.177 11.7 191.7 13.1775 191.7 15Z"
    fill="#E6E6E6" />
  <path
    d="M10 165C10 167.761 7.76142 170 5 170C2.23858 170 0 167.761 0 165C0 162.239 2.23858 160 5 160C7.76142 160 10 162.239 10 165ZM1.7 165C1.7 166.823 3.17746 168.3 5 168.3C6.82254 168.3 8.3 166.823 8.3 165C8.3 163.177 6.82254 161.7 5 161.7C3.17746 161.7 1.7 163.177 1.7 165Z"
    fill="#E6E6E6" />
  <path
    d="M30 145C30 147.761 27.7614 150 25 150C22.2386 150 20 147.761 20 145C20 142.239 22.2386 140 25 140C27.7614 140 30 142.239 30 145ZM21.7 145C21.7 146.823 23.1775 148.3 25 148.3C26.8225 148.3 28.3 146.823 28.3 145C28.3 143.177 26.8225 141.7 25 141.7C23.1775 141.7 21.7 143.177 21.7 145Z"
    fill="#E6E6E6" />
  <rect x="10" y="164" width="60" height="2" fill="#E6E6E6" />
  <rect x="130" y="14" width="60" height="2" fill="#E6E6E6" />
  <rect x="130" y="34" width="40" height="2" fill="#E6E6E6" />
  <rect x="30" y="144" width="40" height="2" fill="#E6E6E6" />
  <path
    d="M70 0C54.087 0 38.8258 6.32141 27.5736 17.5736C16.3214 28.8258 10 44.087 10 60C10 75.913 16.3214 91.1742 27.5736 102.426C38.8258 113.679 54.087 120 70 120L70 60V0Z"
    fill="#E6E6E6" />
  <path
    d="M130 60C145.913 60 161.174 66.3214 172.426 77.5736C183.679 88.8258 190 104.087 190 120C190 135.913 183.679 151.174 172.426 162.426C161.174 173.679 145.913 180 130 180L130 120V60Z"
    fill="#E6E6E6" />
  <path fill-rule="evenodd" clip-rule="evenodd"
    d="M130.5 0H69.5V180H130.5V0ZM130 60H95C81.1929 60 70 71.1929 70 85V120H105C118.807 120 130 108.807 130 95V60Z"
    fill="#E6E6E6" />
</svg>
