<svg xmlns="http://www.w3.org/2000/svg" xmlns:xlink="http://www.w3.org/1999/xlink" aria-hidden="true" role="img"
  width="684" height="180" fill="none" viewBox="0 0 684 180" preserveAspectRatio="xMidYMid">
  <path
    d="M180 35C180 37.7614 177.761 40 175 40C172.239 40 170 37.7614 170 35C170 32.2386 172.239 30 175 30C177.761 30 180 32.2386 180 35ZM171.7 35C171.7 36.8225 173.177 38.3 175 38.3C176.823 38.3 178.3 36.8225 178.3 35C178.3 33.1775 176.823 31.7 175 31.7C173.177 31.7 171.7 33.1775 171.7 35Z"
    fill="#E6E6E6" />
  <path
    d="M200 15C200 17.7614 197.761 20 195 20C192.239 20 190 17.7614 190 15C190 12.2386 192.239 10 195 10C197.761 10 200 12.2386 200 15ZM191.7 15C191.7 16.8225 193.177 18.3 195 18.3C196.823 18.3 198.3 16.8225 198.3 15C198.3 13.1775 196.823 11.7 195 11.7C193.177 11.7 191.7 13.1775 191.7 15Z"
    fill="#E6E6E6" />
  <path
    d="M10 165C10 167.761 7.76142 170 5 170C2.23858 170 0 167.761 0 165C0 162.239 2.23858 160 5 160C7.76142 160 10 162.239 10 165ZM1.7 165C1.7 166.823 3.17746 168.3 5 168.3C6.82254 168.3 8.3 166.823 8.3 165C8.3 163.177 6.82254 161.7 5 161.7C3.17746 161.7 1.7 163.177 1.7 165Z"
    fill="#E6E6E6" />
  <path
    d="M30 145C30 147.761 27.7614 150 25 150C22.2386 150 20 147.761 20 145C20 142.239 22.2386 140 25 140C27.7614 140 30 142.239 30 145ZM21.7 145C21.7 146.823 23.1775 148.3 25 148.3C26.8225 148.3 28.3 146.823 28.3 145C28.3 143.177 26.8225 141.7 25 141.7C23.1775 141.7 21.7 143.177 21.7 145Z"
    fill="#E6E6E6" />
  <rect x="10" y="164" width="60" height="2" fill="#E6E6E6" />
  <rect x="130" y="14" width="60" height="2" fill="#E6E6E6" />
  <rect x="130" y="34" width="40" height="2" fill="#E6E6E6" />
  <rect x="30" y="144" width="40" height="2" fill="#E6E6E6" />
  <path
    d="M70 0C54.087 0 38.8258 6.32141 27.5736 17.5736C16.3214 28.8258 10 44.087 10 60C10 75.913 16.3214 91.1742 27.5736 102.426C38.8258 113.679 54.087 120 70 120L70 60V0Z"
    fill="#E6E6E6" />
  <path
    d="M130 60C145.913 60 161.174 66.3214 172.426 77.5736C183.679 88.8258 190 104.087 190 120C190 135.913 183.679 151.174 172.426 162.426C161.174 173.679 145.913 180 130 180L130 120V60Z"
    fill="#E6E6E6" />
  <path fill-rule="evenodd" clip-rule="evenodd"
    d="M130.5 0H69.5V180H130.5V0ZM130 60H95C81.1929 60 70 71.1929 70 85V120H105C118.807 120 130 108.807 130 95V60Z"
    fill="#E6E6E6" />
  <path
    d="M298.548 166.98C269.54 166.98 249.744 152.084 248.96 140.52C248.176 132.876 253.468 128.76 259.152 130.328C269.54 133.268 272.676 159.924 299.332 159.924C318.148 159.924 328.144 146.988 328.144 132.68C328.144 96.42 250.724 113.668 251.116 66.628C251.312 45.068 265.032 27.82 295.02 27.82C324.028 27.82 337.356 43.5 337.552 54.868C337.748 59.964 335.592 64.668 328.732 64.276C318.148 63.688 320.5 34.876 294.04 34.876C274.048 34.876 265.816 45.852 265.816 58.788C265.816 89.952 345 76.624 345 125.428C345 147.968 328.732 166.98 298.548 166.98Z"
    fill="white" />
  <path
    d="M380.926 166.98C367.598 166.98 353.682 156.788 353.682 139.736C353.682 119.94 371.322 113.276 392.686 107.396C401.114 105.044 407.19 103.672 411.306 102.692V97.988C411.306 84.856 409.15 69.568 397.586 69.568C379.358 69.568 378.966 90.344 367.01 90.736C360.542 90.932 356.818 87.208 357.798 80.936C359.758 69.176 383.474 63.296 398.174 63.296C419.93 63.296 429.73 76.624 429.73 97.008V142.48C429.73 151.888 430.514 154.632 437.962 151.692C439.53 150.908 441.098 150.712 442.078 152.084C443.254 153.652 442.078 156.004 440.51 157.768C439.334 159.14 430.514 166.392 422.674 166.392C415.422 166.392 412.286 162.276 411.894 153.064C404.642 161.492 394.45 166.98 380.926 166.98ZM388.766 157.768C396.41 157.768 403.27 153.26 408.17 146.4C409.738 144.44 411.306 140.128 411.306 137.384V109.552L402.486 111.708C398.174 112.688 393.47 114.452 388.962 116.412C379.162 120.724 372.89 128.564 372.89 138.952C372.89 151.3 379.946 157.768 388.766 157.768Z"
    fill="white" />
  <path
    d="M449.851 166C448.479 166 447.303 164.824 447.303 163.06C447.303 161.296 448.087 160.316 449.655 159.924C458.475 157.768 459.259 153.848 459.259 141.5V87.208C459.259 77.016 458.475 75.252 449.851 74.664C448.283 74.664 447.303 73.292 447.303 71.724C447.303 69.96 448.479 68.98 450.047 68.588L471.607 63.492C474.743 62.708 477.683 65.06 477.683 68.392V85.64C484.151 73.488 497.479 63.296 512.571 63.296C537.071 63.296 545.695 82.112 545.695 99.556V141.5C545.695 153.848 546.283 157.768 555.299 159.924C556.671 160.316 557.651 161.296 557.651 163.06C557.651 164.824 556.475 166 554.907 166H517.863C516.295 166 515.119 164.824 515.119 163.06C515.119 161.296 516.099 160.316 517.471 159.924C526.487 157.768 527.075 153.848 527.075 141.5V103.28C527.075 87.6 520.999 76.428 505.907 76.428C490.815 76.428 477.683 88.776 477.683 104.064V141.5C477.683 153.848 478.467 157.768 487.287 159.924C488.855 160.316 489.639 161.296 489.639 163.06C489.639 164.824 488.659 166 487.091 166H449.851Z"
    fill="white" />
  <path
    d="M568.48 166C567.184 166 566.32 164.992 566.32 163.696C566.32 162.256 567.04 161.536 568.048 161.248C573.808 159.376 574.384 156.208 574.384 147.136V83.92C574.384 74.848 573.808 71.824 568.048 69.952C567.04 69.52 566.32 68.8 566.32 67.504C566.32 66.064 567.184 65.2 568.48 65.2H600.16C601.312 65.2 602.176 66.064 602.176 67.504C602.176 68.8 601.6 69.52 600.448 69.952C594.112 71.68 591.088 73.552 591.088 83.632V148.72C591.088 158.944 593.968 160.096 600.448 160.096H614.704C626.656 160.096 630.544 147.568 635.296 136.48C635.728 135.184 636.88 134.32 638.32 134.32C640.048 134.32 641.056 135.616 640.912 137.056C640.624 139.36 637.456 160.384 636.88 162.832C636.592 164.704 635.008 166 632.56 166H568.48Z"
    fill="white" />
  <path
    d="M652.377 166C651.081 166 650.217 164.992 650.217 163.696C650.217 162.256 650.793 161.536 651.945 161.248C657.705 159.376 658.281 156.208 658.281 147.136V83.92C658.281 74.848 657.705 71.824 651.945 69.952C650.793 69.52 650.217 68.8 650.217 67.504C650.217 66.064 651.081 65.2 652.377 65.2H681.033C682.185 65.2 683.049 66.064 683.049 67.504C683.049 68.8 682.473 69.52 681.321 69.952C675.561 71.824 674.985 74.848 674.985 83.92V147.136C674.985 156.208 675.561 159.376 681.321 161.248C682.473 161.536 683.049 162.256 683.049 163.696C683.049 164.992 682.185 166 681.033 166H652.377Z"
    fill="white" />
</svg>
